<svg width="74" height="26" viewBox="0 0 74 26" fill="none" xmlns="http://www.w3.org/2000/svg">
<rect width="74" height="26" rx="2" fill="#6F737D"/>
<path d="M7.785 18.5H9.298V13.145H15.129V18.5H16.659V6.651H15.129V11.734H9.298V6.651H7.785V18.5ZM23.4152 18.687C25.8632 18.687 27.3422 17.344 27.3422 15.287C27.3422 13.621 26.5602 12.686 23.9592 11.7C22.1232 10.986 21.3752 10.459 21.3752 9.473C21.3752 8.555 22.1912 7.807 23.2962 7.807C24.2482 7.807 25.0472 8.334 25.5232 9.235L26.7982 8.453C26.0672 7.144 24.8772 6.447 23.3472 6.447C21.2732 6.447 19.8622 7.688 19.8622 9.524C19.8622 11.122 20.7122 11.989 23.1432 12.924C25.1152 13.689 25.8122 14.301 25.8122 15.423C25.8122 16.528 24.9792 17.327 23.4322 17.327C21.9192 17.327 20.8312 16.426 20.6272 14.93L19.1312 15.304C19.4542 17.344 21.1712 18.687 23.4152 18.687ZM39.3159 6.651L35.7119 15.763L32.1079 6.651H29.9149V18.5H31.4279V8.674L34.9809 17.497H36.4599L39.9789 8.708V18.5H41.5089V6.651H39.3159Z" fill="white"/>
<path d="M64.2609 14.9429V17.2258H61.9131L52.7391 6.83163H48V8.77453H52.0434L61.2174 19.1687H64.2608L64.2607 21.5L67.9998 18.1971L64.2609 14.9429ZM52.0435 17.2258H48.0001V19.1687H52.7392L55.4348 16.1087L54.2174 14.7002L52.0435 17.2258ZM68 7.8029L64.2609 4.5V6.83141H61.2174L58.5219 9.84283L59.7393 11.2514L61.9132 8.77421H64.2175V11.0571L68 7.8029Z" fill="white"/>
</svg>
