<svg width="74" height="26" viewBox="0 0 74 26" fill="none" xmlns="http://www.w3.org/2000/svg">
<rect width="74" height="26" rx="2" fill="#292B2E"/>
<path d="M7.649 18.5H9.468V13.264H14.976V18.5H16.795V6.651H14.976V11.581H9.468V6.651H7.649V18.5ZM23.3812 18.704C25.8122 18.704 27.3932 17.31 27.3932 15.168C27.3932 13.502 26.5942 12.584 24.0272 11.598C22.2082 10.901 21.5622 10.408 21.5622 9.524C21.5622 8.708 22.2762 8.045 23.2622 8.045C24.1292 8.045 24.8942 8.538 25.3362 9.439L26.8492 8.504C26.1182 7.127 24.8772 6.43 23.3132 6.43C21.1712 6.43 19.7432 7.688 19.7432 9.575C19.7432 11.241 20.6102 12.125 23.0582 13.06C24.9282 13.791 25.5742 14.352 25.5742 15.321C25.5742 16.392 24.7752 17.089 23.4152 17.089C21.9532 17.089 20.9502 16.222 20.7802 14.777L18.9612 15.219C19.3012 17.327 21.0692 18.704 23.3812 18.704ZM38.9443 6.651L35.6123 15.389L32.2973 6.651H29.6793V18.5H31.4983V9.167L34.7283 17.48H36.4963L39.7433 9.167V18.5H41.5623V6.651H38.9443Z" fill="white"/>
<path d="M64.2609 14.9429V17.2258H61.9131L52.7391 6.83163H48V8.77453H52.0434L61.2174 19.1687H64.2608L64.2607 21.5L67.9998 18.1971L64.2609 14.9429ZM52.0435 17.2258H48.0001V19.1687H52.7392L55.4348 16.1087L54.2174 14.7002L52.0435 17.2258ZM68 7.8029L64.2609 4.5V6.83141H61.2174L58.5219 9.84283L59.7393 11.2514L61.9132 8.77421H64.2175V11.0571L68 7.8029Z" fill="#8787FD"/>
</svg>
